<?xml version="1.0" encoding="UTF-8"?>
<svg width="1440px" height="1282px" viewBox="0 0 1440 1282" version="1.1" xmlns="http://www.w3.org/2000/svg" xmlns:xlink="http://www.w3.org/1999/xlink">
    <!-- Generator: Sketch 59.1 (86144) - https://sketch.com -->
    <title>geography</title>
    <desc>Created with Sketch.</desc>
    <g id="geography" stroke="none" stroke-width="1" fill="none" fill-rule="evenodd">
        <rect fill="#000000" x="0" y="0" width="1440" height="1282"></rect>
        <text id="Riskiest-Scam-Types" font-family="AGaramondPro-Regular, Adobe Garamond Pro" font-size="30" font-weight="normal" fill="#FFFAF0">
            <tspan x="63" y="86">Riskiest Scam Types by Geographic Area</tspan>
        </text>
        <text id="2009" font-family="AGaramondPro-Regular, Adobe Garamond Pro" font-size="14" font-weight="normal" fill="#FFFAF0">
            <tspan x="710" y="657">2009</tspan>
        </text>
        <text id="2019" font-family="AGaramondPro-Regular, Adobe Garamond Pro" font-size="14" font-weight="normal" fill="#FFFAF0">
            <tspan x="710" y="1203">2019</tspan>
        </text>
        <polygon id="Path-3" fill="#9C1AF8" points="411.636186 223 636.24583 223 624.129166 370.242902 647 370.242902 647 436.490387 636.24583 436.490387 625.129166 520 530.318093 520 473.750208 486.323762 438.807566 486.323762 438.807566 458.651688 388 407.644671 388 354.419835 388 306.258268"></polygon>
        <polygon id="Path-3-Copy" fill="#C373FC" points="411.636186 769 636.24583 769 624.129166 916.242902 647 916.242902 647 982.490387 636.24583 982.490387 625.129166 1066 530.318093 1066 473.750208 1032.32376 438.807566 1032.32376 438.807566 1004.65169 388 953.644671 388 900.419835 388 852.258268"></polygon>
        <polygon id="Path-4" fill="#D9AFF6" points="635.746984 223 624 370.811784 646.920409 371.566665 646.920409 437 813.482496 437 866.85575 403.072436 890.641504 403.072436 913 370.553609 903.514918 317.745593 786.541808 223"></polygon>
        <polygon id="Path-4-Copy" fill="#ECD8F9" points="635.746984 769 624 916.811784 646.920409 917.566665 646.920409 983 813.482496 983 866.85575 949.072436 890.641504 949.072436 913 916.553609 903.514918 863.745593 786.541808 769"></polygon>
        <polygon id="Path-5" fill="#C373FC" points="636.072613 436.524099 624.57395 519.559716 575 519.559716 628.358178 568.756843 644.94646 551.429872 654.844968 551.429872 689.526239 611.070422 716.678357 619 716.678357 576.894503 766.513385 551.429872 830.643138 568.756843 830.643138 551.429872 812.839299 540.952706 913.362772 540.952706 955.14649 611.070422 971.0526 611.070422 971.0526 576.894503 930.481632 516.680323 993 436.524099 955.14649 370 913.362772 370 891.022351 402.58438 867.255826 402.58438 812.839299 436.524099"></polygon>
        <polygon id="Path-5-Copy" fill="#D9AFF6" points="636.072613 982.524099 624.57395 1065.55972 575 1065.55972 628.358178 1114.75684 644.94646 1097.42987 654.844968 1097.42987 689.526239 1157.07042 716.678357 1165 716.678357 1122.8945 766.513385 1097.42987 830.643138 1114.75684 830.643138 1097.42987 812.839299 1086.95271 913.362772 1086.95271 955.14649 1157.07042 971.0526 1157.07042 971.0526 1122.8945 930.481632 1062.68032 993 982.524099 955.14649 916 913.362772 916 891.022351 948.58438 867.255826 948.58438 812.839299 982.524099"></polygon>
        <polygon id="Path-6" fill="#ECD8F9" points="903 317.440878 912.890988 370.707118 954.301251 370.707118 993.145775 437 996.341588 332.22392 1032.63007 309.368188 1032.63007 274.555418 1058 249.11575 1032.63007 209 1016.79142 209 1007.36686 258.9561 965.669645 266.592504"></polygon>
        <polygon id="Path-6-Copy" fill="#9C1AF8" points="903 863.440878 912.890988 916.707118 954.301251 916.707118 993.145775 983 996.341588 878.22392 1032.63007 855.368188 1032.63007 820.555418 1058 795.11575 1032.63007 755 1016.79142 755 1007.36686 804.9561 965.669645 812.592504"></polygon>
        <text id="Median-$-Loss:-$175" font-family="SourceSansPro-Bold, Source Sans Pro" font-size="14" font-weight="bold" line-spacing="16" fill="#FFFAF0">
            <tspan x="188" y="265">Median $ Loss:</tspan>
            <tspan x="277.852" y="265.574005" font-family="SourceSansPro-Regular, Source Sans Pro" font-weight="normal"> $175</tspan>
            <tspan x="188" y="281">Riskiest Scam: </tspan>
            <tspan x="280.54" y="281.574005" font-family="SourceSansPro-Regular, Source Sans Pro" font-weight="normal">Romance</tspan>
        </text>
        <text id="Median-$-Loss:-$175" font-family="SourceSansPro-Bold, Source Sans Pro" font-size="14" font-weight="bold" line-spacing="16" fill="#FFFAF0">
            <tspan x="188" y="811">Median $ Loss:</tspan>
            <tspan x="277.852" y="811.574005" font-family="SourceSansPro-Regular, Source Sans Pro" font-weight="normal"> $175</tspan>
            <tspan x="188" y="827">Riskiest Scam: </tspan>
            <tspan x="280.54" y="827.574005" font-family="SourceSansPro-Regular, Source Sans Pro" font-weight="normal">Employment</tspan>
        </text>
        <text id="Median-$-Loss:-$120" font-family="SourceSansPro-Bold, Source Sans Pro" font-size="14" font-weight="bold" line-spacing="16" fill="#FFFAF0">
            <tspan x="1124" y="265">Median $ Loss:</tspan>
            <tspan x="1213.852" y="265.574005" font-family="SourceSansPro-Regular, Source Sans Pro" font-weight="normal"> $120</tspan>
            <tspan x="1124" y="281">Riskiest Scam: </tspan>
            <tspan x="1216.54" y="281.574005" font-family="SourceSansPro-Regular, Source Sans Pro" font-weight="normal">Online Purchase</tspan>
        </text>
        <text id="Median-$-Loss:-$218" font-family="SourceSansPro-Bold, Source Sans Pro" font-size="14" font-weight="bold" line-spacing="16" fill="#FFFAF0">
            <tspan x="1124" y="811">Median $ Loss:</tspan>
            <tspan x="1213.852" y="811.574005" font-family="SourceSansPro-Regular, Source Sans Pro" font-weight="normal"> $218</tspan>
            <tspan x="1124" y="827">Riskiest Scam: </tspan>
            <tspan x="1216.54" y="827.574005" font-family="SourceSansPro-Regular, Source Sans Pro" font-weight="normal">Cryptocurrency</tspan>
        </text>
        <text id="Median-$-Loss:-$172" font-family="SourceSansPro-Bold, Source Sans Pro" font-size="14" font-weight="bold" line-spacing="16" fill="#FFFAF0">
            <tspan x="1124" y="425">Median $ Loss: </tspan>
            <tspan x="1216.652" y="425.574005" font-family="SourceSansPro-Regular, Source Sans Pro" font-weight="normal">$172</tspan>
            <tspan x="1124" y="441">Riskiest Scam:</tspan>
            <tspan x="1213.74" y="441.574005" font-family="SourceSansPro-Regular, Source Sans Pro" font-weight="normal"> Employment</tspan>
        </text>
        <text id="Median-$-Loss:-$170" font-family="SourceSansPro-Bold, Source Sans Pro" font-size="14" font-weight="bold" line-spacing="16" fill="#FFFAF0">
            <tspan x="1124" y="971">Median $ Loss: </tspan>
            <tspan x="1216.652" y="971.574005" font-family="SourceSansPro-Regular, Source Sans Pro" font-weight="normal">$170</tspan>
            <tspan x="1124" y="987">Riskiest Scam:</tspan>
            <tspan x="1213.74" y="987.574005" font-family="SourceSansPro-Regular, Source Sans Pro" font-weight="normal"> Employment</tspan>
        </text>
        <text id="Median-$-Loss:-$125" font-family="SourceSansPro-Bold, Source Sans Pro" font-size="14" font-weight="bold" line-spacing="16" fill="#FFFAF0">
            <tspan x="188" y="425">Median $ Loss:</tspan>
            <tspan x="277.852" y="425.574005" font-family="SourceSansPro-Regular, Source Sans Pro" font-weight="normal"> $125</tspan>
            <tspan x="188" y="441">Riskiest Scam: </tspan>
            <tspan x="280.54" y="441.574005" font-family="SourceSansPro-Regular, Source Sans Pro" font-weight="normal">Employment</tspan>
        </text>
        <text id="Median-$-Loss:-$115" font-family="SourceSansPro-Bold, Source Sans Pro" font-size="14" font-weight="bold" line-spacing="16" fill="#FFFAF0">
            <tspan x="188" y="971">Median $ Loss:</tspan>
            <tspan x="277.852" y="971.574005" font-family="SourceSansPro-Regular, Source Sans Pro" font-weight="normal"> $115</tspan>
            <tspan x="188" y="987">Riskiest Scam: </tspan>
            <tspan x="280.54" y="987.574005" font-family="SourceSansPro-Regular, Source Sans Pro" font-weight="normal">Romance</tspan>
        </text>
        <text id="West" font-family="Garamond-Bold, Garamond" font-size="20" font-weight="bold" line-spacing="23" fill="#C373FC">
            <tspan x="188" y="241">West</tspan>
        </text>
        <text id="West-Copy" font-family="Garamond-Bold, Garamond" font-size="20" font-weight="bold" line-spacing="23" fill="#C373FC">
            <tspan x="188" y="787">West</tspan>
        </text>
        <text id="Northeest" font-family="Garamond-Bold, Garamond" font-size="20" font-weight="bold" line-spacing="23" fill="#C373FC">
            <tspan x="1124" y="241">Northeest</tspan>
        </text>
        <text id="Northeest-Copy" font-family="Garamond-Bold, Garamond" font-size="20" font-weight="bold" line-spacing="23" fill="#C373FC">
            <tspan x="1124" y="787">Northeest</tspan>
        </text>
        <text id="South" font-family="Garamond-Bold, Garamond" font-size="20" font-weight="bold" line-spacing="23" fill="#C373FC">
            <tspan x="1124" y="401">South</tspan>
        </text>
        <text id="South-Copy" font-family="Garamond-Bold, Garamond" font-size="20" font-weight="bold" line-spacing="23" fill="#C373FC">
            <tspan x="1124" y="947">South</tspan>
        </text>
        <text id="Midwest" font-family="Garamond-Bold, Garamond" font-size="20" font-weight="bold" line-spacing="23" fill="#C373FC">
            <tspan x="188" y="401">Midwest</tspan>
        </text>
        <text id="Midwest-Copy" font-family="Garamond-Bold, Garamond" font-size="20" font-weight="bold" line-spacing="23" fill="#C373FC">
            <tspan x="188" y="947">Midwest</tspan>
        </text>
        <path id="Path-7-Copy" d="M728.631705,327.173621 C730.744956,325.865647 733.518406,326.518454 734.826379,328.631705 C736.134353,330.744956 735.481546,333.518406 733.368295,334.826379 C731.398385,336.045633 728.8548,335.561084 727.459342,333.778003 L506.564333,470.5 L188,470.5 L188,469.5 L506.279901,469.5 L726.933268,332.927506 C725.961456,330.883659 726.662539,328.392414 728.631705,327.173621 Z M506.422117,469.5 L506.279901,469.5 L506.158973,469.574847 L506.422117,469.5 Z" fill="#FFFAF0" fill-rule="nonzero"></path>
        <path id="Path-7-Copy-5" d="M728.631705,873.173621 C730.744956,871.865647 733.518406,872.518454 734.826379,874.631705 C736.134353,876.744956 735.481546,879.518406 733.368295,880.826379 C731.398385,882.045633 728.8548,881.561084 727.459342,879.778003 L506.564333,1016.5 L188,1016.5 L188,1015.5 L506.279901,1015.5 L506.281,1015.499 L726.933268,878.927506 C725.993059,876.950126 726.61871,874.553973 728.443628,873.296505 Z M506.281,1015.499 L506.279901,1015.5 L506.158973,1015.57485 L506.422117,1015.5 L506.281,1015.499 Z" fill="#FFFAF0" fill-rule="nonzero"></path>
        <path id="Path-7-Copy-4" d="M506.5,301 C508.985281,301 511,303.014719 511,305.5 C511,307.985281 508.985281,310 506.5,310 C504.183966,310 502.276586,308.250342 502.027543,306.000707 L188.5,306 L188.5,305 L502.027432,305.000297 C502.276019,302.750179 504.183621,301 506.5,301 Z" fill="#FFFAF0" fill-rule="nonzero"></path>
        <path id="Path-7-Copy-2" d="M1240.5082,302.000007 C1242.99347,302.004534 1245.00452,304.022919 1244.99999,306.508197 C1244.99547,308.993474 1242.97708,311.004519 1240.4918,310.999993 C1238.17564,310.995774 1236.27137,309.242445 1236.0266,306.992177 L965.999089,306.499999 L966.000911,305.500001 L1236.02846,305.991147 C1236.2816,303.74197 1238.19217,301.995789 1240.5082,302.000007 Z" fill="#FFFAF0" fill-rule="nonzero"></path>
        <path id="Path-7-Copy-7" d="M1240.5082,848.000007 C1242.99347,848.004534 1245.00452,850.022919 1244.99999,852.508197 C1244.99547,854.993474 1242.97708,857.004519 1240.4918,856.999993 C1238.17564,856.995774 1236.27137,855.242445 1236.0266,852.992177 L965.999089,852.499999 L966.000911,851.500001 L1236.02846,851.991147 C1236.2816,849.74197 1238.19217,847.995789 1240.5082,848.000007 Z" fill="#FFFAF0" fill-rule="nonzero"></path>
        <path id="Path-7-Copy-3" d="M1241,465 C1243.48528,465 1245.5,467.014719 1245.5,469.5 C1245.5,471.985281 1243.48528,474 1241,474 C1238.68397,474 1236.77659,472.250342 1236.52754,470.000707 L860.5,470 L860.5,469 L1236.52743,469.000297 C1236.77602,466.750179 1238.68362,465 1241,465 Z" fill="#FFFAF0" fill-rule="nonzero"></path>
        <path id="Path-7-Copy-6" d="M506.5,847 C508.985281,847 511,849.014719 511,851.5 C511,853.985281 508.985281,856 506.5,856 C504.183966,856 502.276586,854.250342 502.027543,852.000707 L188.5,852 L188.5,851 L502.027432,851.000297 C502.276019,848.750179 504.183621,847 506.5,847 Z" fill="#FFFAF0" fill-rule="nonzero"></path>
        <path id="Path-7-Copy-8" d="M1241,1011 C1243.48528,1011 1245.5,1013.01472 1245.5,1015.5 C1245.5,1017.98528 1243.48528,1020 1241,1020 C1238.68397,1020 1236.77659,1018.25034 1236.52754,1016.00071 L860.5,1016 L860.5,1015 L1236.52743,1015.0003 C1236.77602,1012.75018 1238.68362,1011 1241,1011 Z" fill="#FFFAF0" fill-rule="nonzero"></path>
        <path id="Line-5" d="M273.5,929.5 L273.5,945.589 L277.309343,938.819082 L278.180918,939.309343 L273,948.519864 L267.819082,939.309343 L268.690657,938.819082 L272.5,945.593 L272.5,929.5 L273.5,929.5 Z" fill="#C373FC" fill-rule="nonzero"></path>
        <path id="Line-5-Copy" d="M1219.54341,768.230756 L1224.45916,777.585486 L1223.57394,778.050655 L1219.959,771.171 L1219.48552,787.764076 L1218.48592,787.735516 L1218.96,771.143 L1214.95877,777.804507 L1214.10155,777.289554 L1219.54341,768.230756 Z" fill="#C373FC" fill-rule="nonzero"></path>
        <path id="Line-5-Copy-2" d="M1183.5,928.5 L1183.5,944.591 L1187.30934,937.819082 L1188.18092,938.309343 L1183,947.519864 L1177.81908,938.309343 L1178.69066,937.819082 L1182.5,944.591 L1182.5,928.5 L1183.5,928.5 Z" fill="#C373FC" fill-rule="nonzero"></path>
        <line x1="690.5" y1="653.5" x2="575.5" y2="653.5" id="Line-6" stroke="#FFFAF0" stroke-linecap="square" stroke-dasharray="3,4"></line>
        <line x1="872" y1="653.5" x2="757" y2="653.5" id="Line-6-Copy" stroke="#FFFAF0" stroke-linecap="square" stroke-dasharray="3,4"></line>
        <line x1="690.5" y1="1199.5" x2="575.5" y2="1199.5" id="Line-6-Copy-2" stroke="#FFFAF0" stroke-linecap="square" stroke-dasharray="3,4"></line>
        <line x1="872" y1="1199.5" x2="757" y2="1199.5" id="Line-6-Copy-3" stroke="#FFFAF0" stroke-linecap="square" stroke-dasharray="3,4"></line>
    </g>
</svg>